<svg xmlns="http://www.w3.org/2000/svg" viewBox="0 0 1254 1254" fill="currentColor"><style>svg{color:#fff}@media(prefers-color-scheme:light){svg{color:#000}}</style><path d="M687,1032.3l-117.5-.2c-34.9,0-62.9,34.2-65.1,72l-.6,70.3c0,8.2-6.2,15.6-14.2,14.9l-90.3-7.4c-7.3-.6-12.3-8.5-12.3-16.1l-.2-73.6c-.1-42.5-30.9-75.4-68.5-79.3l-58.2-8.6c-30-2.1-54.9,26.1-57,58.8l-.7,73.3c0,5.1-5.4,10.2-10.3,9.1-20-4.6-38.9-10.2-57.3-19.2-20.4-10.1-35.3-27.5-42.4-50.8-21.2-69.9-19-161.5-3.2-233.2,9-40.9,24-76.7,45.3-111,68.6-110.5,114.3-204.7,142.9-336.2l12-55.5c12.7-58.3,55.8-104.2,102.4-133.4,103.1-64.4,242.5-75,357-47.8,66,15.7,136,50.9,180.5,106.9,20.2,25.5,32.5,54.1,38.9,87.3,7.9,40.1,16.4,78.6,28.2,117.8,28.8,96.1,71.6,177.7,123.3,260.6,22.7,36.4,38.1,74.6,46.8,117.9,12,60.4,13.4,121.8,5.2,182.9-2.2,16.3-5.8,31.3-10.8,46.2-7.2,21.6-20.5,37.6-39.5,47.5-18.4,9.5-37.7,15.2-57.9,19.9-20.1,4.7-11.3-3.8-11.3-10.5v-68.1c-.2-34.2-29.2-66.9-58.2-62.5l-58,8.7c-40.5,6.1-68.6,41-68.5,86.1v67.9c0,8.5-6.8,14.4-13.9,14.9l-86.2,7.4c-7.9.7-16.2-5.2-16.3-14l-.8-71.6c-2.2-36.4-28.8-71.6-63.5-71.6h.1ZM449.3,554.7c20.5-21.6,20.9-53.3,1.5-74.9-29.3-32.9-79.8-30-106,6-16.6,22.8-13.3,52.9,6.7,71.9,27.7,26.3,70.7,25.5,97.7-2.9h.1ZM904.3,557c19.3-18.9,22.2-47.9,6.9-70-26.1-37.9-79-40.4-108.1-5.6-17.6,21-16.8,51.1,1.1,71.4,26.5,30,71.2,32.7,100.1,4.3ZM676.5,647.9c19.6-20.6,20.4-51.1,2.5-72.5-26.2-31.4-72.8-32.7-100.3-3-20.1,21.6-20.6,54-.2,75.6,26.5,28.1,70.7,28.6,98,0h0ZM288.5,750.8c-.2,48.7,60.1,75.9,99,44.2,1.9-1.5,3.6-3.1,5.3-4.8h0c19.9-19.8,22.6-51.7,3.7-74.3-1.9-2.2-3.7-4.3-5.7-6.2-37.7-35.5-102-9.4-102.1,41.1h-.2ZM961.5,787.7c18.4-20.6,18.4-49.5,1.4-70.6-26.8-33.4-76.1-34.2-104-1.5-18.4,21.5-17.2,53.4,2.1,73.6,27.7,29.1,73.3,29,100.4-1.6ZM677.7,849.6c19.5-22.2,18.4-52.9-.6-73.8-27.1-30-72.8-29.7-99.8.5-20,22.5-18.4,55.5,3,76.5,27.1,26.4,71.6,26,97.2-3.2h.1Z"/></svg>
