<?xml version="1.0" encoding="UTF-8"?><svg id="a" xmlns="http://www.w3.org/2000/svg" viewBox="0 0 180 180"><defs><style>.b{fill:#fcfcfc;}.c{fill:#2452bb;}</style></defs><path class="c" d="M163.22,172.46l-144.62-.1c-7.19,0-12.97-7.62-12.97-14.67l.02-131.8c0-11.41,9.72-18.37,20.38-18.34l131,.3c10.99.03,17.34,9.97,17.31,20.25l-.35,130.26c-.02,6.74-4.53,12.08-10.79,14.09ZM138.31,62.15c-7.6-11.14-18.59-18.32-30.13-24.2-14.94-6.96-30.36-10.92-46.8-12.39-11.18-1.1-21.74-1.53-33.82-1.12,8.61,7.95,13.94,17.54,16.92,28.6,18.54-4.82,36.94-6.66,55.63-4.67,13.95,1.11,25.7,6.03,38.2,13.78ZM137.65,89.04c7.59,1.23,13.25,4.6,18.93,9.75-5.11-27.8-30.37-38.86-56.65-40.6-17.49-.85-34.72,1.85-51.95,7.3,2.54,12.35,3.06,24.19,2.85,36.31,27.36-7.99,59.8-17.13,86.82-12.76ZM129.6,130.87c2.41,1.39,1.62,4.52,1.1,6.35-1.68,5.89-7.06,8.35-9.12,14.63,15.38-10.19,47.29-40.13,27.31-50.39-21.88-11.24-74.27,4.46-98.99,14.02-1.73,16.65-6.18,30.48-14.61,44.78l49.17-20.44c10.52-4.37,37.83-13.16,45.13-8.95Z"/><path class="b" d="M129.6,130.87c-7.3-4.21-34.61,4.57-45.13,8.95l-49.17,20.44c8.43-14.3,12.88-28.13,14.61-44.78,24.72-9.55,77.11-25.26,98.99-14.02,19.98,10.26-11.93,40.2-27.31,50.39,2.05-6.28,7.43-8.74,9.12-14.63.52-1.83,1.3-4.96-1.1-6.35Z"/><path class="b" d="M137.65,89.04c-27.02-4.37-59.46,4.76-86.82,12.76.22-12.11-.31-23.95-2.85-36.31,17.23-5.46,34.45-8.15,51.95-7.3,26.27,1.74,51.54,12.8,56.65,40.6-5.68-5.15-11.34-8.52-18.93-9.75Z"/><path class="b" d="M138.31,62.15c-12.5-7.76-24.25-12.68-38.2-13.78-18.69-1.99-37.09-.15-55.63,4.67-2.98-11.06-8.32-20.65-16.92-28.6,12.08-.41,22.64.02,33.82,1.12,16.44,1.48,31.87,5.43,46.8,12.39,11.55,5.88,22.53,13.06,30.13,24.2Z"/></svg>