<?xml version="1.0" encoding="UTF-8"?><svg id="a" xmlns="http://www.w3.org/2000/svg" viewBox="0 0 900 200"><defs><style>.b{fill:#fcfcfc;}.c{fill:#050505;}.d{fill:#2452bb;}</style></defs><path class="d" d="M522.76,151.67c-7.96,2.14-15.57,2.13-23.12.34-18.52-4.4-30.08-21.15-28.41-40.01,1.26-14.25,9.4-26,22.7-31.46,13.92-5.72,30.01-4.28,41.92,5.23,9.37,7.48,13.88,18.75,13.79,30.65-.12,16.54-10.62,30.88-26.88,35.26ZM510.75,137.66c9.7-.08,17.12-6.11,19.17-15.12,1.64-7.18,1.08-14.9-2.93-21.11-3.77-5.83-9.9-8.42-16.3-8.55-6.36-.14-12.82,2.5-16.68,8.04s-4.47,12.11-3.85,18.58c1.02,10.68,9.41,18.26,20.59,18.16Z"/><path class="d" d="M318.16,152.58c-19.63-3.05-32.29-19.02-31.49-38.35.6-14.33,7.88-27,21.25-33.1,11.57-5.28,25.22-5.37,36.64.3,11.22,5.57,18.17,15.81,19.9,28.05,1.76,12.45-1.79,25.06-11.1,33.65s-22.28,11.46-35.2,9.45ZM325.61,137.67c11.32.24,19.44-7.73,20.39-18.47.65-7.4-.35-15.1-5.89-20.68-7.87-7.94-22.1-7.68-29.51,1.05-6.24,7.35-6.75,17.99-3.25,26.52,3.1,7.54,9.92,11.42,18.25,11.59Z"/><path class="d" d="M444.72,126.41c-.02,6.18,4.36,10.42,10.18,10.41h11.14s-.02,15.22-.02,15.22l-17.16-.25c-12.12-1.16-22.32-9.92-22.36-22.57l-.2-72.63,18.38.02.1,21.47,20.85.29.39,14.93-21.2.07-.1,33.03Z"/><path class="d" d="M391.86,103.54l-.21,48.52-18.35-.03.09-48.23c.01-7.59,2.73-14.41,8.01-19.58,4.96-3.77,10.94-5.86,17.27-5.87l18.52-.03-.09,15.07-15.73.22c-5.12.07-9.48,4.09-9.51,9.92Z"/><path class="d" d="M280.8,100.23c-5.79,8-14.62,12.67-24.22,12.8l-26.85.34-.12,38.61-19.68.09-.05-102.38,41.9.05c5.61,0,10.71,1.04,15.87,2.94,11.44,4.64,18.53,15.4,18.51,27.8-.01,6.98-1.05,13.77-5.37,19.74ZM267.06,82.21c.57-8.88-5.54-16.09-14.26-16.16l-23.14-.19.04,31.24,23.57-.2c8.03-.07,13.84-6.52,13.79-14.69Z"/><path class="d" d="M168.75,182.96l-144.62-.1c-7.19,0-12.97-7.62-12.97-14.67l.02-131.8c0-11.41,9.72-18.37,20.38-18.34l131,.3c10.99.03,17.34,9.97,17.31,20.25l-.35,130.26c-.02,6.74-4.53,12.08-10.79,14.09ZM143.83,72.65c-7.6-11.14-18.59-18.32-30.13-24.2-14.94-6.96-30.36-10.92-46.8-12.39-11.18-1.1-21.74-1.53-33.82-1.12,8.61,7.95,13.94,17.54,16.92,28.6,18.54-4.82,36.94-6.66,55.63-4.67,13.95,1.11,25.7,6.03,38.2,13.78ZM143.17,99.54c7.59,1.23,13.25,4.6,18.93,9.75-5.11-27.8-30.37-38.86-56.65-40.6-17.49-.85-34.72,1.85-51.95,7.3,2.54,12.35,3.06,24.19,2.85,36.31,27.36-7.99,59.8-17.13,86.82-12.76ZM135.12,141.37c2.41,1.39,1.62,4.52,1.1,6.35-1.68,5.89-7.06,8.35-9.12,14.63,15.38-10.19,47.29-40.13,27.31-50.39-21.88-11.24-74.27,4.46-98.99,14.02-1.73,16.65-6.18,30.48-14.61,44.78l49.17-20.44c10.52-4.37,37.83-13.16,45.13-8.95Z"/><path class="b" d="M135.12,141.37c-7.3-4.21-34.61,4.57-45.13,8.95l-49.17,20.44c8.43-14.3,12.88-28.13,14.61-44.78,24.72-9.55,77.11-25.26,98.99-14.02,19.98,10.26-11.93,40.2-27.31,50.39,2.05-6.28,7.43-8.74,9.12-14.63.52-1.83,1.3-4.96-1.1-6.35Z"/><path class="b" d="M143.17,99.54c-27.02-4.37-59.46,4.76-86.82,12.76.22-12.11-.31-23.95-2.85-36.31,17.23-5.46,34.45-8.15,51.95-7.3,26.27,1.74,51.54,12.8,56.65,40.6-5.68-5.15-11.34-8.52-18.93-9.75Z"/><path class="b" d="M143.83,72.65c-12.5-7.76-24.25-12.68-38.2-13.78-18.69-1.99-37.09-.15-55.63,4.67-2.98-11.06-8.32-20.65-16.92-28.6,12.08-.41,22.64.02,33.82,1.12,16.44,1.48,31.87,5.43,46.8,12.39,11.55,5.88,22.53,13.06,30.13,24.2Z"/><path class="c" d="M628.42,96.71c11.37,3.44,17.59,13.18,18.04,24.31.42,10.4-3.94,19.62-12.69,25.32-5.69,3.36-12.05,5.62-18.88,5.64l-46.56.16.02-102.41,43.9.05c7.48,0,14.27,2.57,20.03,6.93,6.24,5.22,9.38,12.59,8.88,20.74-.53,8.49-5.24,15.41-12.74,19.27ZM611.23,89.65c7.45-.1,11.77-6,11.6-12.49-.17-6.63-5.21-11.36-12.35-11.43l-22.92-.2.21,24.43,23.46-.33ZM613.79,134.88c8.74-.91,13.9-7.23,13.44-14.96s-6.15-13.26-14.23-13.34l-25.33-.25-.03,28.93,26.15-.39Z"/><polygon class="c" points="890.84 151.76 868.87 152.15 845.37 119.16 836.48 127.41 836.43 151.85 818.18 151.81 818.18 47.26 836.4 47.2 836.42 105.45 865.12 78.39 888.54 78.38 858.05 107.56 890.84 151.76"/><path class="c" d="M662.72,114.1c5.2-4.1,11.47-6.08,17.84-6.21l21-.41c.69-4.21.51-9.21-2.79-12.36-6.16-5.87-16.43-5.86-23.06-.71-2.93,2.27-3.63,5.78-4.25,9.28h-16.9c.6-10.87,7.31-19.56,17.28-23.59,9.71-3.92,20.56-4.04,30.55-.45,9.87,3.55,17.76,12.59,17.81,23.32l.21,49.13h-18.34s-.17-10.41-.17-10.41c-6.61,11.98-22.89,14.43-34.36,9.43-6.95-3.03-11.7-9.5-12.7-16.23-1.2-8.09,1.16-15.52,7.86-20.8ZM701.57,120.22l-20.71.38c-5.42.88-8.9,4.91-8.69,9.76.22,5.16,3.84,8.68,9.2,9.32,5.69.68,11.3-.49,15.25-4.36s5.77-9.19,4.96-15.09Z"/><path class="c" d="M778.78,96.48c-5.38-4.26-12.51-3.95-18.35-1-5.31,2.68-8.91,9.07-8.94,15.83l-.18,40.82-18.21-.06.03-73.73,18.25-.05c.09,3.56-.51,6.35.48,10.19,5.36-7.85,13.65-11.37,23.05-11.4,14.54-.05,26.85,9.83,27.85,24.98l.46,50.09h-18.33s-.19-43.08-.19-43.08c-.02-4.71-2.06-9.52-5.92-12.57Z"/></svg>